<?xml version="1.0" encoding="UTF-8" standalone="no"?>
<!-- Created with Inkscape (http://www.inkscape.org/) -->
<svg xmlns:rdf="http://www.w3.org/1999/02/22-rdf-syntax-ns#" xmlns="http://www.w3.org/2000/svg" height="38.317mm" width="35.461mm" version="1.1" xmlns:cc="http://creativecommons.org/ns#" xmlns:dc="http://purl.org/dc/elements/1.1/" viewBox="0 0 35.460999 38.317">
 <metadata>
  <rdf:RDF>
   <cc:Work rdf:about="">
    <dc:format>image/svg+xml</dc:format>
    <dc:type rdf:resource="http://purl.org/dc/dcmitype/StillImage"/>
    <dc:title/>
   </cc:Work>
  </rdf:RDF>
 </metadata>
 <g fill-opacity=".97213" transform="translate(0 -258.68)" fill="#000d00">
  <g>
   <path d="m23.75 295.94c-1.6175 0.50306-3.9508 1.0368-6.791 1.0583-3.012 0.0226-5.4755-0.53975-7.1437-1.0583-0.53869-4.7431-1.0777-9.4858-1.6168-14.229h17.169l-1.6171 14.229"/>
   <path d="m21.996 281.71c-0.03034 0.36724-0.52599 6.0678-2.0084 9.1137-0.29598 0.60783-0.77646 1.5699-1.7935 2.4472-0.7807 0.6738-1.5275 0.99518-1.7343 1.0806-1.4534 0.59937-2.2994 0.24024-5.2536 0.51823-0.6283 0.0593-1.1462 0.11359-1.4947 0.15134 0.03457 0.30586 0.0695 0.61171 0.10407 0.91793 1.6683 0.51858 4.1317 1.0809 7.1437 1.0583 2.8402-0.0215 5.1735-0.55527 6.791-1.0583l1.6171-14.229h-3.3715"/>
   <path d="m26.837 281.71c0 0.51541-4.5014 0.93274-10.054 0.93274-5.5527 0-10.054-0.41733-10.054-0.93274 0-0.51506 4.5014-0.93239 10.054-0.93239 5.5527 0 10.054 0.41733 10.054 0.93239"/>
   <path d="m11.668 288.59c0 0.78423-0.4378 1.4199-0.97825 1.4199-0.5401 0-0.9779-0.6357-0.9779-1.4199 0-0.78422 0.4378-1.4199 0.9779-1.4199 0.54046 0 0.97825 0.63571 0.97825 1.4199"/>
   <path d="m11.179 291.15c0 0.39193-0.21908 0.70978-0.4893 0.70978-0.26988 0-0.48895-0.31785-0.48895-0.70978 0-0.39229 0.21908-0.71014 0.48895-0.71014 0.27023 0 0.4893 0.31785 0.4893 0.71014"/>
   <path d="m26.329 281.71c0 0.4893-4.2739 0.88582-9.5462 0.88582-5.2719 0-9.5458-0.39652-9.5458-0.88582 0-0.48895 4.2739-0.88547 9.5458-0.88547 5.2723 0 9.5462 0.39652 9.5462 0.88547"/>
   <path d="m26.249 286.06c-2.6515 0.42263-5.7796 0.73942-9.29 0.74965-3.658 0.0106-6.9077-0.31362-9.6425-0.74965-0.19614-1.4503-0.39194-2.9005-0.58808-4.3512 2.5008 0.93274 6.2879 0.89217 10.299 0.87736 4.0742-0.0148 7.184 0.008 9.8097-0.87736-0.19579 1.4506-0.39194 2.9009-0.58773 4.3512"/>
   <path d="m25.904 282.18c-0.54328 1.3466-1.8214 1.9029-3.2392 2.3781-1.7681 0.59302-3.6759 0.54081-5.5347 0.69321-0.94227 0.0776-1.88 0.20884-2.8243 0.25294-1.0446 0.0487-2.0944-0.01-3.1348 0.0953-0.9017 0.091-1.7858 0.30409-2.6776 0.4639-0.18521 0.0332-0.37112 0.0624-0.55668 0.0914 2.6028 0.38735 5.6349 0.6664 9.023 0.65652 3.5105-0.0102 6.6386-0.32702 9.29-0.74965l0.57326-4.2439c-0.07056 0.0579-0.17251 0.12877-0.30692 0.18592-0.17956 0.0762-0.50624 0.1725-0.61207 0.17638"/>
   <path d="m7.1071 282.64s3.1803 0.97825 6.2145 0.44909c0 0-4.554 4.2548-6.2145-0.44909"/>
   <path d="m35.461 267.48c-1.3963 5.6776-9.6083 11.654-13.975 12.742-0.85196 0.21202-1.9336 0.37254-3.1161 0.23672-1.8189-0.5588-1.7032-1.3914-1.536-1.814 0.86713-2.1922 9.8827-5.3668 18.627-11.164"/>
   <path d="m21.497 277.05c-0.87454 1.2622-1.107 2.4539-0.48648 3.278-0.76482 0.15346-1.6679 0.24377-2.6416 0.13159-1.8189-0.5588-1.7032-1.391-1.536-1.814 0.56268-1.4224 4.651-3.3701 9.6019-5.4765-1.7159 1.3769-4.0361 2.5792-4.9378 3.8809"/>
   <path d="m23.275 280.36c-1.518-1.0488-2.4105-2.4165-2.3153-3.8601-0.78493 0.29174-1.6598 0.75177-2.4836 1.5141-1.3391 1.869-0.74648 2.8437-0.36442 3.2854 1.3261 1.5321 4.9163 2.6698 16.576 0.89535-2.3506-0.65934-9.8467-0.75283-11.412-1.8348"/>
   <path d="m14.689 290.35c5.5358-6.3571 7.6613-13.001 5.449-16.453-0.43145-0.6738-1.1659-1.4411-2.5037-2.0278-2.6568-0.62054-3.9758 0.12029-4.5448 0.56056-2.9496 2.2825-2.7647 9.6622 1.5995 17.92"/>
   <path d="m14.698 276.47c1.348-1.5353 3.1743-2.6352 5.1671-2.9355-0.4512-0.57503-1.1395-1.18-2.2412-1.6634-2.6568-0.62054-3.9758 0.1203-4.5448 0.56056-1.9138 1.481-2.5061 5.1089-1.4954 9.7289 0.75918-2.1241 1.724-4.107 3.1143-5.6907"/>
   <path d="m14.123 287.34c-0.08008 0.96414 1.203 1.3811 1.7244 0.56621 1.1723-1.8313 2.5615-4.3695 2.0168-5.3936-0.71861-1.3504-3.4551 1.3825-3.7412 4.8274"/>
   <path d="m20.447 260.85c2.1576 5.9799 2.4479 12.893 0.8188 17.088-0.31785 0.81845-0.81033 1.7949-1.6034 2.6825-1.5057 1.1638-2.1188 0.58949-2.3678 0.20884-1.2908-1.9724-0.24694-10.114 3.1524-19.979"/>
   <path d="m18.675 276.1c0.5267 1.4422 1.3663 2.3192 2.3975 2.2874-0.31574 0.71332-0.7627 1.5032-1.4157 2.2342-1.5057 1.1638-2.1188 0.58949-2.3678 0.20884-0.8375-1.2799-0.69109-5.1583 0.44274-10.418 0.13582 2.196 0.3997 4.1995 0.94333 5.6871"/>
   <path d="m24.185 258.68c3.1831 4.9043 1.9184 14.982-0.27799 18.91-0.42862 0.76659-1.0516 1.6648-1.9604 2.4338-1.6524 0.94333-2.1802 0.28928-2.3738-0.12206-1.0044-2.1325 2.8529-10.878 4.6122-21.221"/>
   <path d="m21.597 275.41c0.32138 1.5014 1.0308 2.4864 2.0567 2.5982-0.41204 0.66252-0.96414 1.3825-1.7124 2.0158-1.6528 0.94368-2.1802 0.28928-2.3738-0.12206-0.65193-1.3836 0.72708-5.6974 2.5806-10.748-0.17074 2.1936-0.88265 4.7078-0.55104 6.2565"/>
   <path d="m0.28928 272.73c5.4402 0.27658 10.309 2.4059 12.101 5.1798 0.3496 0.54117 0.69321 1.2799 0.78352 2.2348-0.18168 1.6344-0.96626 1.9413-1.3843 2.0154-2.1678 0.38418-7.009-3.2611-11.5-9.4301"/>
   <path d="m9.4742 279.41c0.99272 0.0631 1.7995-0.24801 1.7995-0.24801 0.52881-0.19649 0.97331-0.50835 1.2947-0.93698 0.27975 0.50342 0.5267 1.1409 0.60078 1.9272-0.18133 1.6369-0.96732 1.942-1.3843 2.0154-2.1643 0.38065-6.9959-3.2611-11.473-9.4213 3.9052 4.1578 7.5646 6.562 9.1623 6.6636"/>
   <path d="m9.2964 264.22c5.2098 3.0261 8.5323 7.2686 8.3354 10.452-0.03845 0.62089-0.22331 1.4002-0.81456 2.225-1.3455 1.239-2.3435 1.0852-2.812 0.93028-2.4285-0.80292-4.6426-6.2668-4.7089-13.607"/>
  </g>
  <circle opacity="0.289" cx="135.66" transform="rotate(27.902)" cy="235.41" r="6.2023"/>
  <path d="m0 278.57c5.1234-1.8507 10.437-1.772 13.162 0.0924 0.53199 0.36407 1.1349 0.91193 1.5875 1.7575 0.46496 1.5776-0.13935 2.1639-0.49636 2.394-1.85 1.2-7.7255-0.29-14.254-4.24"/>
  <path d="m11.053 281.17c0.93945-0.32597 1.5635-0.92499 1.5635-0.92499 0.41099-0.38593 0.70026-0.84525 0.83079-1.3649 0.45297 0.35595 0.9271 0.84808 1.3 1.5445 0.46637 1.5794-0.14005 2.165-0.49636 2.394-1.8482 1.1889-7.7131-0.2988-14.225-4.2464 5.2105 2.3223 9.5148 3.1228 11.027 2.5979"/>
  <ellipse rx="1.2153" ry=".58670" transform="rotate(27.902)" cy="230.63" cx="134.36"/>
  <g>
   <path d="m1.5173 264.45c7.0189 2.631 13.004 7.602 14.891 12.199 0.3683 0.89676 0.69815 2.0659 0.66428 3.4311-0.49389 2.1978-1.5603 2.3005-2.1149 2.231-2.8748-0.36089-8.5845-7.4284-13.44-17.861"/>
   <path d="m12.387 277.53c1.2785 0.49777 2.3753 0.39864 2.3753 0.39864 0.7172-0.0554 1.3434-0.30515 1.8284-0.7687 0.28363 0.81562 0.50341 1.8041 0.47554 2.928-0.49389 2.2013-1.5621 2.3012-2.1149 2.231-2.8702-0.36407-8.5676-7.4232-13.407-17.838 4.4136 7.3939 8.7842 12.248 10.843 13.049"/>
   <path d="m13.523 260.03c4.7667 5.1798 7.5318 11.761 6.9603 16.239-0.11148 0.87383-0.38559 1.9463-1.065 3.0145-1.4707 1.5258-2.4345 1.1374-2.8773 0.83784-2.2938-1.5529-3.8238-9.6756-3.018-20.091"/>
   <path d="m16.616 275.19c1.1578 1.2474 2.5086 1.8666 3.7825 1.5586-0.14534 0.77223-0.42792 1.6531-0.98742 2.5326-1.4707 1.5258-2.4345 1.1374-2.8769 0.83784-1.4884-1.0075-2.6543-4.7826-3.0702-10.154 0.93239 2.0789 1.9579 3.9381 3.1521 5.2246"/>
   <path d="m14.201 262.56s3.9091 4.9294 3.7412 7.0548c-0.16792 2.1258-3.6491-1.6852-3.7412-7.0548"/>
   <path d="m31.851 263.84c-7.1487 2.6674-12.953 7.6419-14.46 12.209-0.29422 0.89111-0.51823 2.051-0.3369 3.4018 0.75741 2.171 1.8972 2.2627 2.4769 2.189 3.0046-0.38312 8.2935-7.4298 12.32-17.8"/>
   <path d="m21.74 276.88c-1.7311 0.63747-3.3634 0.58032-4.4891-0.32844-0.21308 0.80998-0.34043 1.79-0.19085 2.9023 0.75741 2.171 1.8972 2.2627 2.4769 2.189 1.9494-0.2487 4.8606-3.3045 7.7643-8.2511-1.8919 1.543-3.7754 2.8303-5.5612 3.4883"/>
   <path d="m30.002 265.94s-6.1778 2.8402-6.9963 4.9583c-0.81809 2.1181 4.4154 0.14288 6.9963-4.9583"/>
   <path d="m33.697 275.85c-5.3693-0.91906-10.586 0.0946-12.94 2.41-0.45952 0.4521-0.95647 1.0976-1.253 2.0097-0.17974 1.6349 0.51842 2.1055 0.91037 2.269 2.0313 0.84888 7.5525-1.6503 13.283-6.6888"/>
   <path d="m23.275 280.36c-0.98218-0.15536-1.702-0.63506-1.702-0.63506-0.47255-0.30748-0.83823-0.70865-1.0583-1.1972-0.38317 0.43018-0.76318 0.99815-1.0075 1.7493-0.18082 1.6368 0.5193 2.1065 0.91037 2.269 2.0287 0.84465 7.5398-1.653 13.255-6.6862-4.7199 3.204-8.8158 4.7503-10.397 4.5001"/>
  </g>
 </g>
</svg>
