<?xml version="1.0" encoding="UTF-8" standalone="no"?>
<!-- Created with Inkscape (http://www.inkscape.org/) -->
<svg xmlns:rdf="http://www.w3.org/1999/02/22-rdf-syntax-ns#" xmlns="http://www.w3.org/2000/svg" height="36.691mm" width="27.554mm" version="1.1" xmlns:cc="http://creativecommons.org/ns#" xmlns:dc="http://purl.org/dc/elements/1.1/" viewBox="0 0 27.554001 36.691001">
 <metadata>
  <rdf:RDF>
   <cc:Work rdf:about="">
    <dc:format>image/svg+xml</dc:format>
    <dc:type rdf:resource="http://purl.org/dc/dcmitype/StillImage"/>
    <dc:title/>
   </cc:Work>
  </rdf:RDF>
 </metadata>
 <g transform="translate(0 -260.31)">
  <g transform="translate(-3.7086 .54182)">
   <g>
    <path d="m25.558 295.4c-1.6178 0.50306-3.9511 1.0368-6.791 1.0583-3.0124 0.0226-5.4758-0.53975-7.1438-1.0583-0.53904-4.7431-1.0781-9.4858-1.6171-14.229h17.169l-1.6168 14.229" fill="#893518"/>
    <path d="m23.803 281.17c-0.03034 0.36724-0.52564 6.0678-2.0084 9.1137-0.29598 0.60784-0.77646 1.5699-1.7932 2.4472-0.78105 0.67381-1.5279 0.99519-1.7346 1.0806-1.4534 0.59902-2.2991 0.24024-5.2536 0.51823-0.62794 0.0593-1.1462 0.1136-1.4947 0.15099 0.03457 0.30621 0.0695 0.61207 0.10442 0.91828 1.6679 0.51858 4.1314 1.0809 7.1438 1.0583 2.8399-0.0215 5.1731-0.55527 6.791-1.0583l1.6168-14.229h-3.3715" fill="#812c10"/>
    <path d="m28.644 281.17c0 0.51506-4.5014 0.93275-10.054 0.93275-5.5531 0-10.054-0.41769-10.054-0.93275 0-0.51505 4.5011-0.93274 10.054-0.93274 5.5527 0 10.054 0.41769 10.054 0.93274" fill="#9a4123"/>
    <path d="m13.475 288.05c0 0.78423-0.43815 1.4199-0.97825 1.4199-0.54046 0-0.97825-0.63571-0.97825-1.4199 0-0.78422 0.4378-1.4199 0.97825-1.4199 0.5401 0 0.97825 0.6357 0.97825 1.4199" fill="#a2492b"/>
    <path d="m12.986 290.6c0 0.39229-0.21908 0.71014-0.48895 0.71014-0.27023 0-0.4893-0.31785-0.4893-0.71014 0-0.39194 0.21908-0.70979 0.4893-0.70979 0.26988 0 0.48895 0.31785 0.48895 0.70979" fill="#a2492b"/>
    <path d="m28.136 281.17c0 0.4893-4.2739 0.88583-9.5458 0.88583-5.2723 0-9.5462-0.39653-9.5462-0.88583 0-0.48895 4.2739-0.88547 9.5462-0.88547 5.2719 0 9.5458 0.39652 9.5458 0.88547" fill="#4c2213"/>
    <path d="m7.0004 269.19c0.15981 1.3656 0.68368 4.01 2.727 6.7151 4.1603 5.5086 10.936 6.3923 11.79 6.4908-0.47131-1.4256-1.2954-3.4805-2.7651-5.7785-1.2626-1.9745-2.3421-3.6622-4.3543-5.0842-2.813-1.9879-5.8219-2.3065-7.3974-2.3432" fill="#087242"/>
    <path d="m31.182 266.34c-1.3342 0.33302-3.8897 1.191-6.3112 3.5634-4.9315 4.8306-4.9414 11.664-4.9297 12.523 1.3536-0.64946 3.2865-1.7297 5.3774-3.4812 1.7967-1.5046 3.3327-2.7912 4.4856-4.9689 1.6118-3.0441 1.543-6.0688 1.378-7.6362" fill="#087242"/>
    <path d="m18.692 259.77c-0.96732 1.2495-2.6645 3.8414-3.1637 7.7047-1.0164 7.8676 3.8336 14.044 4.4549 14.811 0.75988-1.549 1.7367-3.8986 2.3791-6.9667 0.55174-2.636 1.0234-4.8895 0.51576-7.6754-0.70944-3.8943-2.9224-6.5758-4.1861-7.8736" fill="#41926a"/>
    <path d="m16.42 263.87c-0.38947 1.0428-0.71614 2.244-0.89218 3.6064-1.0167 7.8676 2.2747 15.972 4.4549 14.811-0.36477 0.19438 1.7367-3.8986 2.3791-6.9667 0.13476-0.64382 0.26458-1.2651 0.37677-1.8768-0.87418-0.39087-2.9309-1.4513-4.5018-3.7853-1.6348-2.4285-1.8013-4.8369-1.8168-5.7887" fill="#087242"/>
    <path d="m30.814 273.33s-9.5426 1.5378-10.831 8.9524c0 0 9.0061 2.1375 10.831-8.9524" fill="#7ab392"/>
    <path d="m30.457 273.76c-0.69039 0.2159-1.7166 0.58032-2.891 1.1769-1.5448 0.78528-4.8814 2.4807-4.6514 4.1328 0.11042 0.79234 1.0178 1.4076 1.7826 1.5554 1.7293 0.33443 3.2473-1.6224 3.9589-2.54 1.1924-1.5378 1.6309-3.1782 1.8009-4.3251" fill="#b3d5ba"/>
    <path d="m25.013 263.44s-9.6206 9.2191-5.0296 18.846c0 0 12.014-4.5311 5.0296-18.846" fill="#7ab392"/>
    <path d="m24.954 264.23c-0.6791 0.68933-1.5917 2.219-2.3767 3.731-0.98919 1.9064-2.4458 5.8434-0.9906 7.0736 0.71473 0.60431 2.062 0.496 2.9221-0.0483 1.9883-1.2587 2.1773-5.817 0.44521-10.756" fill="#b3d5ba"/>
    <path d="m28.056 285.52c-2.6515 0.42263-5.7796 0.73907-9.2897 0.74966-3.6583 0.0106-6.9077-0.31362-9.6428-0.74966-0.19579-1.4503-0.39194-2.9009-0.58773-4.3512 2.5005 0.93275 6.2879 0.89218 10.298 0.87736 4.0746-0.0148 7.1843 0.008 9.81-0.87736-0.19614 1.4503-0.39229 2.9009-0.58808 4.3512" fill="#9a4123"/>
    <path d="m27.711 281.64c-0.54292 1.3466-1.8214 1.9029-3.2392 2.3781-1.7681 0.59302-3.6759 0.54081-5.5347 0.69321-0.94227 0.0773-1.88 0.20885-2.824 0.25294-1.0449 0.0487-2.0948-0.01-3.1351 0.0953-0.9017 0.091-1.7858 0.30375-2.6776 0.46391-0.18521 0.0332-0.37077 0.0624-0.55668 0.0914 2.6028 0.38735 5.6349 0.66639 9.0233 0.65652 3.5101-0.0106 6.6382-0.32703 9.2897-0.74966l0.57362-4.2439c-0.07091 0.0579-0.17286 0.12876-0.30727 0.18591-0.17956 0.0762-0.50624 0.17251-0.61207 0.17639" fill="#893721"/>
    <path d="m8.9139 282.1s3.1806 0.97825 6.2145 0.44908c0 0-4.554 4.2548-6.2145-0.44908" fill="#b5492c"/>
   </g>
   <circle opacity="0.289" cy="274.16" cx="9.9109" r="6.2023" fill="#ebffff"/>
   <g>
    <path d="m11.108 263.75c-0.54116 1.3818-1.3804 4.1289-0.77082 7.4432 1.2411 6.7494 7.3455 10.596 8.1266 10.977 0.17357-1.7007 0.23989-4.7071-0.36618-7.2905-1.4143-6.0297-5.3107-9.7169-6.9896-11.13" fill="#41926a"/>
    <path d="m4.8343 273.15s10.797 0.54152 13.634 8.7955c0 0-9.507 3.5683-13.634-8.7955" fill="#7ab392"/>
    <path d="m5.3222 273.58c0.83044 0.12029 2.0722 0.34889 3.5267 0.81668 1.9135 0.61524 6.0459 1.9438 6.0858 3.8777 0.0194 0.92781-0.90699 1.7988-1.7551 2.1086-1.9195 0.70062-4.0167-1.2612-5.0003-2.1812-1.6482-1.5416-2.4518-3.3398-2.8571-4.6217" fill="#b3d5ba"/>
   </g>
  </g>
  <ellipse fill-opacity=".40392" rx="1.1025" ry=".56795" cy="270.04" cx="4.0425" fill="#fff"/>
  <ellipse fill-opacity=".50588" rx=".43194" ry=".36750" cy="271.33" cx="2.1992" fill="#fff"/>
 </g>
</svg>
